<mxfile host="app.diagrams.net" modified="2020-07-16T13:12:28.192Z" agent="5.0 (Windows NT 10.0; Win64; x64) AppleWebKit/537.36 (KHTML, like Gecko) Chrome/83.0.4103.116 Safari/537.36 Edg/83.0.478.64" etag="hW0_3cXK4zxsYymkr2zn" version="13.4.4" type="github">
  <diagram id="rnksFQZ1Q3hPfoXcYKn-" name="Page-1">
    <mxGraphModel dx="1422" dy="794" grid="1" gridSize="10" guides="1" tooltips="1" connect="1" arrows="1" fold="1" page="1" pageScale="1" pageWidth="850" pageHeight="1100" math="0" shadow="0">
      <root>
        <mxCell id="0" />
        <mxCell id="1" parent="0" />
        <mxCell id="Wr7VZHIO8ed7vf0EJpKB-22" value="" style="rounded=1;whiteSpace=wrap;html=1;" vertex="1" parent="1">
          <mxGeometry x="210" y="355" width="430" height="390" as="geometry" />
        </mxCell>
        <mxCell id="Wr7VZHIO8ed7vf0EJpKB-23" value="Cloud Run" style="html=1;fillColor=#5184F3;strokeColor=none;verticalAlign=top;labelPosition=center;verticalLabelPosition=bottom;align=center;spacingTop=-6;fontSize=11;fontStyle=1;fontColor=#999999;shape=mxgraph.gcp2.hexIcon;prIcon=cloud_run" vertex="1" parent="1">
          <mxGeometry x="210" y="360" width="95.9" height="85" as="geometry" />
        </mxCell>
        <mxCell id="Wr7VZHIO8ed7vf0EJpKB-24" value="" style="rounded=1;whiteSpace=wrap;html=1;" vertex="1" parent="1">
          <mxGeometry x="290" y="410" width="280" height="270" as="geometry" />
        </mxCell>
        <mxCell id="Wr7VZHIO8ed7vf0EJpKB-25" value="" style="aspect=fixed;html=1;points=[];align=center;image;fontSize=12;image=img/lib/mscae/Docker.svg;" vertex="1" parent="1">
          <mxGeometry x="305.9" y="440" width="50" height="41" as="geometry" />
        </mxCell>
        <mxCell id="Wr7VZHIO8ed7vf0EJpKB-28" value="" style="rounded=1;whiteSpace=wrap;html=1;" vertex="1" parent="1">
          <mxGeometry x="355.9" y="483" width="154.1" height="127" as="geometry" />
        </mxCell>
        <mxCell id="Wr7VZHIO8ed7vf0EJpKB-26" value="" style="shape=image;html=1;verticalAlign=top;verticalLabelPosition=bottom;labelBackgroundColor=#ffffff;imageAspect=0;aspect=fixed;image=https://cdn4.iconfinder.com/data/icons/scripting-and-programming-languages/512/660277-Python_logo-128.png" vertex="1" parent="1">
          <mxGeometry x="393.45" y="480" width="79" height="79" as="geometry" />
        </mxCell>
        <mxCell id="Wr7VZHIO8ed7vf0EJpKB-27" value="" style="shape=image;html=1;verticalAlign=top;verticalLabelPosition=bottom;labelBackgroundColor=#ffffff;imageAspect=0;aspect=fixed;image=https://cdn4.iconfinder.com/data/icons/logos-brands-5/24/flask-128.png" vertex="1" parent="1">
          <mxGeometry x="390" y="539" width="60" height="60" as="geometry" />
        </mxCell>
      </root>
    </mxGraphModel>
  </diagram>
</mxfile>
